#!OML:ASF X:\für Bonn\!DataBase\2005_08_10_Bjorn_Final\c3d\bjorn.ASF
:FULLY-SPECIFIED
:DEGREES
281
root 11.7198 17.5372 -0.0551229 -525.434 88.0677 -529.098
lowerback 17.6169 1.96262 4.62474
upperback 16.0031 4.60293 0.642668
thorax 7.92153 3.33993 -2.26287
lowerneck -8.69595 -4.90585 4.0442
upperneck 17.7198 -6.50874 -2.86712
head 6.5861 -2.99017 -2.09042
rclavicle 2.38542e-014 7.95139e-015
rhumerus -7.70578 -7.37523 -79.2147
rradius 19.9206
rwrist 8.33512
rhand -19.7982 15.3041
rfingers 7.12502
rthumb 6.53462 -14.5751
lclavicle 2.38542e-014 7.95139e-015
lhumerus -22.2278 -39.658 85.6491
lradius 32.9038
lwrist -10.8498
lhand -21.4014 -8.35912
lfingers 7.12502
lthumb 4.98679 21.5622
rfemur -24.4479 -1.06661 8.87726
rtibia 64.7537
rfoot -20.1812 23.2535
rtoes -20.6296
lfemur -37.3046 8.16317 -20.4491
ltibia 66.5435
lfoot -20.291 -4.25555
ltoes -14.8945
282
root 11.7696 17.6805 -0.058913 -528.059 88.041 -531.651
lowerback 17.0041 2.03784 4.47309
upperback 15.7781 4.61109 0.567266
thorax 7.96985 3.30974 -2.23414
lowerneck -8.53877 -4.87098 4.02842
upperneck 18.1331 -6.4355 -2.84682
head 6.69475 -2.93898 -2.08074
rclavicle 6.04305e-014 -7.15625e-015
rhumerus -8.64164 -7.23363 -79.3771
rradius 19.9701
rwrist 8.21946
rhand -19.8154 15.1635
rfingers 7.12502
rthumb 6.51806 -14.7162
lclavicle 6.04305e-014 -7.15625e-015
lhumerus -22.8909 -39.5076 86.0001
lradius 32.8755
lwrist -10.8934
lhand -21.4075 -8.38303
lfingers 7.12502
lthumb 4.98089 21.5384
rfemur -23.0343 -1.18907 8.87581
rtibia 62.5161
rfoot -19.5113 23.1076
rtoes -19.9803
lfemur -35.7896 8.14735 -20.4866
ltibia 64.3477
lfoot -19.9793 -4.30882
ltoes -14.6016
283
root 11.8194 17.8211 -0.0625521 -528.767 88.0227 -532.295
lowerback 16.3693 2.10568 4.3465
upperback 15.5619 4.61309 0.523737
thorax 8.04188 3.27754 -2.18191
lowerneck -8.422 -4.81879 4.0216
upperneck 18.5515 -6.33253 -2.87841
head 6.81115 -2.87742 -2.08812
rclavicle -8.11041e-014 -2.62396e-014
rhumerus -9.52803 -7.16891 -79.5184
rradius 20.0065
rwrist 8.18198
rhand -19.8108 15.0286
rfingers 7.12502
rthumb 6.52242 -14.8509
lclavicle -8.11041e-014 -2.62396e-014
lhumerus -23.5471 -39.3461 86.3669
lradius 32.8615
lwrist -10.9241
lhand -21.442 -8.44061
lfingers 7.12502
lthumb 4.94757 21.4816
rfemur -21.6352 -1.32693 8.94145
rtibia 60.2665
rfoot -18.8019 22.956
rtoes -19.3707
lfemur -34.2974 8.19227 -20.4487
ltibia 62.1581
lfoot -19.6481 -4.42904
ltoes -14.3536
284
root 11.8684 17.9576 -0.066674 -528.909 87.9873 -532.394
lowerback 15.747 2.17381 4.29228
upperback 15.2983 4.62167 0.445982
thorax 8.06591 3.25428 -2.21042
lowerneck -8.21455 -4.76585 4.07514
upperneck 18.9444 -6.24284 -2.84969
head 6.90364 -2.81252 -2.08346
rclavicle -2.70347e-014 3.49861e-014
rhumerus -10.5022 -7.10636 -79.6941
rradius 20.0819
rwrist 8.14438
rhand -19.8538 14.8906
rfingers 7.12502
rthumb 6.48093 -14.9902
lclavicle -2.70347e-014 3.49861e-014
lhumerus -24.2764 -39.2703 86.7205
lradius 32.8793
lwrist -10.8866
lhand -21.4214 -8.44819
lfingers 7.12502
lthumb 4.96745 21.4736
rfemur -20.2767 -1.49736 9.01849
rtibia 58.0303
rfoot -17.9811 22.8281
rtoes -18.5172
lfemur -32.8438 8.20327 -20.3922
ltibia 59.9754
lfoot -19.315 -4.50924
ltoes -14.2
285
root 11.9173 18.09 -0.0703528 -529.083 87.9535 -532.559
lowerback 15.0755 2.23608 4.19153
upperback 15.0475 4.61778 0.383667
thorax 8.12721 3.22029 -2.19114
lowerneck -8.07948 -4.71096 4.1022
upperneck 19.339 -6.14719 -2.84083
head 7.0101 -2.7488 -2.08268
rclavicle 2.62396e-014 2.8625e-014
rhumerus -11.3845 -7.10868 -79.8592
rradius 20.0938
rwrist 8.18405
rhand -19.8537 14.8121
rfingers 7.12502
rthumb 6.48104 -15.0688
lclavicle 2.62396e-014 2.8625e-014
lhumerus -24.9514 -39.1481 87.0663
lradius 32.8934
lwrist -10.837
lhand -21.4356 -8.45833
lfingers 7.12502
lthumb 4.95378 21.4638
rfemur -18.9571 -1.69354 9.08298
rtibia 55.7984
rfoot -17.0931 22.721
rtoes -17.5134
lfemur -31.4581 8.24022 -20.342
ltibia 57.8102
lfoot -18.914 -4.66718
ltoes -13.8274
286
root 11.9662 18.2176 -0.0730853 -527.538 87.9106 -531.023
lowerback 14.3796 2.2962 4.15149
upperback 14.77 4.61313 0.337119
thorax 8.17839 3.1886 -2.18815
lowerneck -7.73626 -4.6657 4.15217
upperneck 19.6093 -6.05422 -2.84574
head 7.03827 -2.68751 -2.08077
rclavicle -3.37934e-014 4.05521e-014
rhumerus -12.2969 -6.9872 -80.0209
rradius 20.1283
rwrist 8.08142
rhand -19.9123 14.7309
rfingers 7.12502
rthumb 6.42452 -15.1517
lclavicle -3.37934e-014 4.05521e-014
lhumerus -25.6547 -39.059 87.4398
lradius 32.8912
lwrist -10.7942
lhand -21.4298 -8.46324
lfingers 7.12502
lthumb 4.95933 21.4587
rfemur -17.6744 -1.91528 9.2118
rtibia 53.5921
rfoot -16.158 22.6261
rtoes -16.3834
lfemur -30.119 8.2609 -20.2139
ltibia 55.6764
lfoot -18.4926 -4.82828
ltoes -13.4722
287
root 12.0148 18.3394 -0.0760103 -526.565 87.8608 -530.113
lowerback 13.6408 2.35611 4.08249
upperback 14.4718 4.60239 0.292507
thorax 8.22876 3.14931 -2.16498
lowerneck -7.16056 -4.6212 4.19068
upperneck 19.7286 -5.9514 -2.83335
head 6.97775 -2.62304 -2.06027
rclavicle -2.5842e-014 1.35174e-014
rhumerus -13.2116 -6.8397 -80.1421
rradius 20.1601
rwrist 7.89855
rhand -19.9568 14.7498
rfingers 7.12502
rthumb 6.3815 -15.1341
lclavicle -2.5842e-014 1.35174e-014
lhumerus -26.3868 -38.9527 87.8272
lradius 32.9222
lwrist -10.7469
lhand -21.4086 -8.52794
lfingers 7.12502
lthumb 4.97984 21.3935
rfemur -16.4707 -2.15919 9.31026
rtibia 51.4297
rfoot -15.1729 22.5389
rtoes -15.1091
lfemur -28.8667 8.31898 -20.1236
ltibia 53.5862
lfoot -18.1017 -4.97446
ltoes -13.5561
